<?xml version="1.0" encoding="utf-8"?>
<!-- Generator: Adobe Illustrator 15.0.2, SVG Export Plug-In . SVG Version: 6.00 Build 0)  -->
<!DOCTYPE svg PUBLIC "-//W3C//DTD SVG 1.1//EN" "http://www.w3.org/Graphics/SVG/1.1/DTD/svg11.dtd">
<svg version="1.1" id="Layer_1" xmlns="http://www.w3.org/2000/svg" xmlns:xlink="http://www.w3.org/1999/xlink" x="0px" y="0px"
	 width="512px" height="512px" viewBox="0 0 512 512" enable-background="new 0 0 512 512" xml:space="preserve">
<path d="M307.269,38.173l14.357,14.357L361.031,0c31.279,16.386,60.656,37.722,86.946,64.018
	c26.29,26.29,47.631,55.661,64.022,86.951l-52.541,39.4l14.368,14.357l-25.85,25.845l-25.85-25.845L264.186,431.586
	c0,0-149.315-11.481-241.211,80.414l-5.741-5.751l150.994-150.994c11.828,5.01,28.891,5.57,38.529-4.067
	c12.694-12.694,12.694-33.264,0-45.953c-12.685-12.689-33.254-12.689-45.943,0c-9.638,9.644-11.958,23.83-6.943,35.663
	L2.875,491.901L0,489.016c91.896-91.896,80.409-241.217,80.409-241.217L307.269,89.862l-25.85-25.845L307.269,38.173z"/>
</svg>
