<?xml version="1.0" encoding="utf-8"?>
<!-- Generator: Adobe Illustrator 16.0.0, SVG Export Plug-In . SVG Version: 6.00 Build 0)  -->
<!DOCTYPE svg PUBLIC "-//W3C//DTD SVG 1.1 Tiny//EN" "http://www.w3.org/Graphics/SVG/1.1/DTD/svg11-tiny.dtd">
<svg version="1.1" baseProfile="tiny" id="Layer_1" xmlns="http://www.w3.org/2000/svg" xmlns:xlink="http://www.w3.org/1999/xlink"
	 x="0px" y="0px" width="24px" height="24px" viewBox="0 0 24 24" xml:space="preserve">
<g>
	<path fill-rule="evenodd" fill="#050007" d="M16.629,10.932h-3.561V7.371c0-0.59-0.478-1.068-1.068-1.068
		c-0.59,0-1.068,0.479-1.068,1.068v3.561H7.371c-0.59,0-1.068,0.479-1.068,1.068s0.479,1.068,1.068,1.068h3.561v3.561
		c0,0.591,0.479,1.068,1.068,1.068c0.59,0,1.068-0.478,1.068-1.068v-3.561h3.561c0.59,0,1.068-0.479,1.068-1.068
		S17.219,10.932,16.629,10.932z M12,0.605C5.707,0.605,0.605,5.707,0.605,12c0,6.294,5.102,11.395,11.395,11.395
		S23.395,18.294,23.395,12C23.395,5.707,18.293,0.605,12,0.605z M12,21.258c-5.113,0-9.258-4.145-9.258-9.258S6.887,2.742,12,2.742
		S21.258,6.887,21.258,12S17.113,21.258,12,21.258z"/>
</g>
</svg>
